# Alias OBJ Model File
# Exported from SketchUp, (c) 2000-2012 Trimble Navigation Limited
# File units = millimeters

mtllib Workpiece.mtl

g Mesh1 Group1 Model

usemtl Color_A01
v 160 210 12
vt -8.26772 0.472441
vn -1 0 0
v 160 30 0
vt -1.1811 0
v 160 30 12
vt -1.1811 0.472441
f 1/1/1 2/2/1 3/3/1

v 160 210 0
vt -8.26772 0
f 2/2/1 1/1/1 4/4/1

vn 1 -0 -0
f 3/3/2 2/2/2 1/1/2

vt -6.29921 0.472441
vn -1.87998e-16 1 0
v 190 30 0
vt -7.48031 0
vt -6.29921 0
f 3/5/3 5/6/3 2/7/3

v 190 30 12
vt -7.48031 0.472441
f 5/6/3 3/5/3 6/8/3

vn 1.87998e-16 -1 -0
f 2/7/4 5/6/4 3/5/4

v 190 0 0
vn 0 0 -1
vt -6.29921 1.1811
vt -7.48031 1.1811
f 7/6/5 2/9/5 5/10/5

v 30 30 0
vt -1.1811 1.1811
f 7/6/5 8/11/5 2/9/5

v 0 0 0
vt 0 0
f 9/12/5 8/11/5 7/6/5

v 0 30 0
vt 0 1.1811
f 8/11/5 9/12/5 10/13/5

vn -0 -0 1
f 10/13/6 9/12/6 8/11/6

v 0 30 12
f 9/12/1 11/3/1 10/2/1

v 0 0 12
vt 0 0.472441
f 11/3/1 9/12/1 12/14/1

f 12/14/2 9/12/2 11/3/2

vn 0 -1 0
v 190 0 12
vt 7.48031 0.472441
f 9/12/7 13/15/7 12/14/7

vt 7.48031 0
f 13/15/7 9/12/7 7/16/7

vn -0 1 -0
f 7/16/8 9/12/8 13/15/8

f 7/6/6 8/11/6 9/12/6

f 2/9/6 8/11/6 7/6/6

v 30 30 12
vn 2.4691e-17 1 0
f 14/3/9 2/7/9 8/2/9

f 2/7/9 14/3/9 3/5/9

vn -2.4691e-17 -1 -0
f 8/2/10 2/7/10 14/3/10

f 3/5/10 14/3/10 2/7/10

vt 1.1811 1.1811
vn 0 0 1
vt 6.29921 1.1811
f 14/17/11 13/16/11 3/18/11

f 11/13/11 13/16/11 14/17/11

f 13/16/11 11/13/11 12/12/11

vn -0 -0 -1
f 12/12/12 11/13/12 13/16/12

f 14/17/12 13/16/12 11/13/12

f 3/18/12 13/16/12 14/17/12

vt 7.48031 1.1811
f 3/18/11 13/16/11 6/19/11

f 6/19/12 13/16/12 3/18/12

vn 1 0 0
vt 1.1811 0
vt 1.1811 0.472441
f 13/14/13 5/20/13 6/21/13

f 5/20/13 13/14/13 7/12/13

vn -1 -0 -0
f 7/12/14 13/14/14 5/20/14

f 6/21/14 5/20/14 13/14/14

f 6/8/4 3/5/4 5/6/4

vt 6.29921 8.26772
f 6/19/11 1/22/11 3/18/11

v 190 210 12
vt 7.48031 8.26772
f 1/22/11 6/19/11 15/23/11

f 3/18/12 1/22/12 6/19/12

f 15/23/12 6/19/12 1/22/12

v 190 210 0
vt 8.26772 0
vt 8.26772 0.472441
f 6/21/13 16/24/13 15/25/13

f 16/24/13 6/21/13 5/20/13

f 5/20/14 6/21/14 16/24/14

f 15/25/14 16/24/14 6/21/14

v 190 240 0
vt 9.44882 0
f 17/26/13 15/25/13 16/24/13

v 190 240 12
vt 9.44882 0.472441
f 15/25/13 17/26/13 18/27/13

f 16/24/14 15/25/14 17/26/14

vt 6.29921 0
f 15/15/7 4/28/7 16/16/7

vt 6.29921 0.472441
f 4/28/7 15/15/7 1/29/7

f 16/16/8 4/28/8 15/15/8

vt -6.29921 8.26772
vt -7.48031 9.44882
vt -7.48031 8.26772
f 4/30/5 17/31/5 16/32/5

v 30 210 0
vt -1.1811 8.26772
f 19/33/5 17/31/5 4/30/5

v 0 210 0
vt 0 8.26772
f 20/34/5 17/31/5 19/33/5

v 0 240 0
vt 0 9.44882
f 17/31/5 20/34/5 21/35/5

f 21/35/6 20/34/6 17/31/6

v 0 240 12
vt -9.44882 0.472441
vt -9.44882 0
f 20/4/1 22/36/1 21/37/1

v 0 210 12
f 22/36/1 20/4/1 23/1/1

f 23/1/2 20/4/2 22/36/2

v 30 210 12
f 20/12/7 24/21/7 23/14/7

f 24/21/7 20/12/7 19/20/7

f 19/20/8 20/12/8 24/21/8

f 19/33/6 17/31/6 20/34/6

f 4/30/6 17/31/6 19/33/6

f 16/32/6 17/31/6 4/30/6

f 16/32/5 2/9/5 4/30/5

f 2/9/5 16/32/5 5/10/5

f 4/30/6 2/9/6 16/32/6

f 4/4/2 1/1/2 2/2/2

f 1/29/7 19/20/7 4/28/7

f 19/20/7 1/29/7 24/21/7

f 4/28/8 19/20/8 1/29/8

f 24/21/8 1/29/8 19/20/8

vt 7.48031 9.44882
vt 1.1811 8.26772
f 18/38/11 24/39/11 1/22/11

f 22/35/11 24/39/11 18/38/11

f 24/39/11 22/35/11 23/34/11

f 23/34/12 22/35/12 24/39/12

f 18/38/12 24/39/12 22/35/12

f 1/22/12 24/39/12 18/38/12

f 18/38/11 1/22/11 15/23/11

f 15/23/12 1/22/12 18/38/12

f 1/29/8 15/15/8 4/28/8

f 18/27/14 17/26/14 15/25/14

vn 0 1 0
f 17/6/15 22/14/15 18/8/15

f 22/14/15 17/6/15 21/12/15

vn -0 -1 -0
f 21/12/16 17/6/16 22/14/16

f 18/8/16 22/14/16 17/6/16

f 21/37/2 22/36/2 20/4/2

f 23/34/11 14/17/11 24/39/11

f 14/17/11 23/34/11 11/13/11

f 11/13/12 23/34/12 14/17/12

f 23/1/1 10/2/1 11/3/1

f 10/2/1 23/1/1 20/4/1

f 11/3/2 10/2/2 23/1/2

vt 2.22045e-16 0.472441
vn 1.87998e-16 1 0
vt 2.22045e-16 0
f 11/40/17 8/2/17 10/41/17

f 8/2/17 11/40/17 14/3/17

vn -1.87998e-16 -1 -0
f 10/41/18 8/2/18 11/40/18

f 10/13/5 19/33/5 8/11/5

f 19/33/5 10/13/5 20/34/5

f 20/34/6 10/13/6 19/33/6

f 20/4/2 23/1/2 10/2/2

f 23/14/8 24/21/8 20/12/8

f 24/39/12 14/17/12 23/34/12

f 14/21/13 19/24/13 24/25/13

f 19/24/13 14/21/13 8/20/13

f 8/20/14 14/21/14 19/24/14

f 14/3/18 11/40/18 8/2/18

f 24/25/14 19/24/14 14/21/14

f 8/11/6 19/33/6 10/13/6

f 10/2/2 11/3/2 9/12/2

f 5/10/6 16/32/6 2/9/6

f 5/10/6 2/9/6 7/6/6

f 12/14/8 13/15/8 9/12/8

g Mesh2 Group1 Model

l 22 23

l 21 22

l 21 20

l 17 21

l 17 18

l 16 17

l 4 16

l 4 1

l 4 2

l 19 4

l 8 19

l 8 2

l 8 14

l 10 8

l 20 10

l 20 23

l 20 19

l 19 24

l 23 24

l 23 11

l 11 14

l 10 11

l 9 10

l 7 9

l 5 7

l 2 5

l 2 3

l 1 3

l 15 1

l 6 15

l 3 6

l 14 3

l 14 24

l 24 1

l 5 6

l 5 16

l 16 15

l 15 18

l 18 22

l 6 13

l 13 12

l 7 13

l 12 11

l 9 12

g Mesh3 Group2 Model

vt -5.11811 7.08661
vt 0 7.08661
f 4/42/5 8/12/5 19/43/5

vt -5.11811 0
f 8/12/5 4/42/5 2/44/5

f 19/43/6 8/12/6 4/42/6

vt -7.08661 0.472441
vt -7.08661 0
f 8/12/1 24/45/1 19/46/1

f 24/45/1 8/12/1 14/14/1

f 14/14/2 8/12/2 24/45/2

vt 5.11811 0.472441
f 8/12/7 3/47/7 14/14/7

vt 5.11811 0
f 3/47/7 8/12/7 2/48/7

f 2/48/8 8/12/8 3/47/8

f 2/44/6 4/42/6 8/12/6

vt 7.08661 0
f 4/49/13 3/14/13 2/12/13

vt 7.08661 0.472441
f 3/14/13 4/49/13 1/50/13

f 2/12/14 3/14/14 4/49/14

f 1/50/14 4/49/14 3/14/14

vt -5.11811 0.472441
f 4/44/15 24/14/15 1/51/15

f 24/14/15 4/44/15 19/12/15

f 19/12/16 4/44/16 24/14/16

f 1/51/16 24/14/16 4/44/16

usemtl Color_D01
vt 5.11811 7.08661
f 24/43/11 3/48/11 1/52/11

f 3/48/11 24/43/11 14/12/11

usemtl Color_A01
f 14/12/12 24/43/12 3/48/12

f 1/52/12 3/48/12 24/43/12

f 14/14/8 3/47/8 8/12/8

f 19/46/2 24/45/2 8/12/2

g Mesh4 Group2 Model

l 1 3

l 24 1

l 19 24

l 19 4

l 8 19

l 2 8

l 4 2

l 4 1

l 2 3

l 3 14

l 14 24

l 8 14

